<svg xmlns="http://www.w3.org/2000/svg" width="205.622" height="158.044" viewBox="1798.199 863.575 205.622 158.044"><g data-name="Group 55"><g data-name="Group 50"><path d="m1968.921 1021.134.048.027c.483.244 1.078.017 1.346-.502.305-.585 1.076-2.197 1.676-4.427.146-.556-.145-1.105-.684-1.225-.526-.114-1.074.227-1.227.796-.547 2-1.24 3.45-1.508 3.97-.249.514-.094 1.104.35 1.36Zm2.331-8.58c.132.077.287.114.456.125.543.002 1.02-.466 1.06-1.031a20.258 20.258 0 0 0-.22-4.605c-.095-.556-.6-.9-1.143-.763a1.106 1.106 0 0 0-.813 1.242c.22 1.337.283 2.722.186 4.136a.972.972 0 0 0 .474.896Zm-1.4-8.485a.953.953 0 0 0 .92.012c.503-.263.73-.876.51-1.382a19.406 19.406 0 0 0-2.194-3.844c-.32-.443-.938-.507-1.376-.137-.45.363-.552 1.013-.225 1.443a17.64 17.64 0 0 1 1.987 3.482c.072.18.21.329.378.426Zm-4.862-6.784c.384.221.896.137 1.227-.243.38-.437.37-1.083-.026-1.45a28.462 28.462 0 0 0-3.348-2.676c-.445-.31-1.058-.162-1.386.323-.328.485-.227 1.114.218 1.423a27.162 27.162 0 0 1 3.143 2.506c.064.054.124.09.172.117Zm-9.612-6.172c.527.304 1.07.583 1.632.856.411.202.822.405 1.213.613.475.258 1.082.037 1.342-.47.28-.512.11-1.13-.361-1.367a46.974 46.974 0 0 0-1.261-.641 26.523 26.523 0 0 1-2.325-1.29c-.453-.297-1.061-.13-1.377.363-.316.492-.196 1.114.257 1.41.288.167.58.353.88.526Zm-4.099-3.093c.372.215.877.143 1.212-.216.393-.43.394-1.07.025-1.456a15.127 15.127 0 0 1-2.417-3.124c-.273-.47-.886-.598-1.356-.282-.47.316-.637.964-.364 1.433a17.351 17.351 0 0 0 2.711 3.502c.065.054.13.109.19.143Zm-4.163-7.245a.912.912 0 0 0 .776.068c.533-.176.839-.76.705-1.305a16.073 16.073 0 0 1-.502-4.06c-.005-.573-.446-1-.999-.956-.553.044-.995.532-.99 1.105.002 1.575.196 3.122.576 4.57a.884.884 0 0 0 .434.578Zm-.087-8.713c.096.056.2.098.318.115.529.08 1.056-.307 1.177-.877a26.198 26.198 0 0 1 1.23-4.096c.213-.535-.024-1.121-.525-1.307-.5-.185-1.082.102-1.294.636a27.9 27.9 0 0 0-1.345 4.463c-.086.452.103.872.439 1.066Zm-110.814-65.932c.288.166.653.17.974-.026a52.577 52.577 0 0 1 3.784-2.068c.496-.25.742-.869.542-1.382-.207-.5-.787-.714-1.295-.47a62.834 62.834 0 0 0-3.924 2.143c-.487.29-.677.923-.43 1.41a.8.8 0 0 0 .349.393Zm120.243 61.4.048.027c1.34.67 2.68 1.201 3.993 1.614.516.16 1.08-.155 1.269-.703.188-.548-.076-1.115-.591-1.275-1.21-.37-2.47-.873-3.714-1.487-.483-.244-1.078-.017-1.346.503-.257.473-.103 1.064.34 1.32Zm-3.59-2.09c.443.255 1.032.094 1.333-.372.316-.492.215-1.12-.237-1.417a37.773 37.773 0 0 1-1.762-1.241 27.754 27.754 0 0 1 1.893-2.642c.357-.452.327-1.091-.077-1.445-.41-.341-1.03-.266-1.398.178-.69.864-1.34 1.768-1.95 2.713-.418-.328-1.028-.213-1.377.225-.356.451-.302 1.105.116 1.433l.495.39c.072.18.214.348.394.452.108.062.231.098.361.122.732.56 1.462 1.068 2.176 1.55-.003.032.02.046.033.053Zm-108.826-63.23c.24.14.547.161.835.05a59.429 59.429 0 0 1 3.997-1.495c.534-.177.851-.754.718-1.298a.915.915 0 0 0-1.203-.66c-1.405.468-2.79.983-4.134 1.539a1.108 1.108 0 0 0-.633 1.346.99.99 0 0 0 .42.519Zm102.324 58.04c.383.222.903.124 1.227-.242.38-.438.37-1.084-.026-1.45a90.28 90.28 0 0 1-2.937-2.89c-.37-.385-1.002-.37-1.406.054-.397.41-.425 1.068-.044 1.461a77.106 77.106 0 0 0 3.006 2.963c.08.029.12.07.18.104Zm18.045 9.623a.916.916 0 0 0 .38.116c1.234.107 2.48.083 3.686-.068.254-.026.504-.072.747-.105.544-.083.95-.592.926-1.16-.044-.56-.507-.95-1.056-.886-.23.04-.466.06-.708.093-1.085.134-2.197.149-3.3.065-.532-.047-1.05.38-1.12.944-.067.446.12.814.445 1.001Zm-23.848-15.636a.975.975 0 0 0 1.17-.171c.41-.404.462-1.048.108-1.46a101.342 101.342 0 0 1-2.698-3.166c-.346-.424-.964-.435-1.39-.058-.432.39-.484 1.034-.15 1.452.92 1.12 1.845 2.206 2.738 3.206a.676.676 0 0 0 .222.197Zm-5.34-6.454c.336.194.787.16 1.129-.127.437-.37.516-1.033.182-1.45a253.157 253.157 0 0 1-2.525-3.326c-.327-.431-.946-.495-1.383-.125-.438.37-.541 1.02-.214 1.45a257.309 257.309 0 0 0 2.554 3.36.823.823 0 0 0 .258.218Zm-82.967-48.334a.918.918 0 0 0 .698.092 65.867 65.867 0 0 1 4.136-.932c.54-.103.93-.64.866-1.195-.063-.555-.554-.924-1.093-.82a78.06 78.06 0 0 0-4.265.96 1.105 1.105 0 0 0-.8 1.25.94.94 0 0 0 .458.645Zm120.58 69.375a.952.952 0 0 0 .737.08c1.707-.52 3.142-1.178 4.255-1.97.466-.336.613-.978.332-1.434-.292-.463-.9-.572-1.36-.249-.924.66-2.154 1.212-3.646 1.664-.538.157-.868.727-.753 1.277a.906.906 0 0 0 .435.632Zm-16.94-12.01c.349.2.807.154 1.137-.14 1.111-.984 2.247-1.815 3.396-2.448.491-.27.713-.903.474-1.404-.226-.493-.821-.681-1.32-.399a21.133 21.133 0 0 0-3.781 2.728c-.426.376-.497 1.027-.17 1.458.088.068.169.15.265.205Zm-25.702-15.774c.324.187.755.16 1.101-.107.45-.363.553-1.013.233-1.456a420.02 420.02 0 0 1-2.421-3.422c-.308-.437-.931-.52-1.373-.17-.442.35-.565 1.006-.257 1.442.836 1.21 1.66 2.36 2.438 3.449.078.114.171.202.279.264Zm-69.513-43.194a.868.868 0 0 0 .577.109 62.916 62.916 0 0 1 4.175-.39c.545-.032.987-.52.994-1.087.007-.566-.433-.993-.979-.963a66.69 66.69 0 0 0-4.296.407c-.549.064-.962.586-.938 1.154.014.336.19.611.467.77Zm64.695 36.28c.323.187.735.165 1.082-.102.453-.343.576-.998.269-1.435-.735-1.081-1.515-2.223-2.353-3.485-.3-.45-.924-.533-1.378-.19-.454.343-.576.998-.276 1.448a380.45 380.45 0 0 0 2.365 3.492c.078.114.183.21.29.272Zm53.868 29.303c.108.062.23.098.369.109.544.055 1.043-.366 1.132-.937.235-1.542-.202-3.195-1.25-4.785-.3-.45-.916-.546-1.37-.203-.454.343-.589.991-.289 1.441.777 1.175 1.102 2.33.958 3.354-.066.446.126.834.45 1.02Zm-15.702-10.691a.93.93 0 0 0 .609.11 7.826 7.826 0 0 1 2.464-.03c.454.071.9.156 1.332.267.519.127 1.074-.227 1.22-.783.157-.549-.146-1.104-.672-1.218-.483-.105-.966-.211-1.451-.284-.976-.166-2.025-.149-3.089.032-.544.084-.945.613-.89 1.181.049.305.226.58.477.725Zm-42.857-25.609c.323.187.735.166 1.074-.088.454-.343.589-.992.289-1.442-.539-.812-1.065-1.617-1.599-2.41l-.727-1.094c-.3-.45-.916-.546-1.37-.203-.454.343-.589.992-.289 1.442l.728 1.094c.526.805 1.06 1.598 1.598 2.41a.77.77 0 0 0 .296.291Zm-51.525-29.817c.132.077.286.114.455.125 1.388.006 2.792.039 4.167.123.54.035 1.033-.406 1.104-.97.07-.565-.322-1.05-.861-1.085a71.113 71.113 0 0 0-4.273-.133c-.542-.002-1.02.466-1.059 1.031a.945.945 0 0 0 .467.91Zm106.091 59.074c.42.242.975.113 1.292-.326.333-.465.27-1.106-.167-1.428a19.16 19.16 0 0 0-3.758-2.187c-.486-.211-1.088.029-1.324.55-.237.52-.046 1.131.44 1.342 1.242.562 2.405 1.234 3.41 1.987l.107.062Zm-59.242-36.279c.323.187.735.166 1.074-.088.454-.344.589-.992.277-1.449-.28-.403-.539-.812-.806-1.208a50.85 50.85 0 0 0-1.654-2.287c-.327-.43-.96-.468-1.386-.091-.437.37-.517 1.033-.182 1.45.547.715 1.087 1.441 1.568 2.186.267.396.534.792.806 1.208a.93.93 0 0 0 .303.28Zm-38.446-22.283a.96.96 0 0 0 .337.108c1.373.17 2.735.386 4.087.648.534.1 1.065-.267 1.199-.83.133-.562-.185-1.092-.719-1.192a68.007 68.007 0 0 0-4.205-.665c-.537-.067-1.06.34-1.161.903-.059.434.126.834.462 1.028Zm8.225 1.567c.072.042.151.07.219.092 1.338.34 2.659.74 3.94 1.151.508.172 1.085-.134 1.286-.676.2-.54-.056-1.121-.564-1.294a56.925 56.925 0 0 0-4.064-1.187c-.518-.126-1.079.207-1.236.756-.143.47.047.944.419 1.158Zm25.065 14.109c.372.214.857.149 1.193-.21.397-.411.425-1.07.056-1.455-.968-1.01-1.995-2-3.084-2.94-.403-.353-1.022-.278-1.398.179-.368.444-.338 1.084.077 1.445a38.742 38.742 0 0 1 2.955 2.83c.065.055.13.109.201.15Zm-17.163-11.483c.036.02.072.041.115.05a54.148 54.148 0 0 1 3.72 1.698c.484.244 1.078.017 1.346-.503s.09-1.124-.393-1.368a58.65 58.65 0 0 0-3.848-1.755c-.493-.198-1.09.062-1.315.59-.21.5-.045 1.046.375 1.288Zm10.889 6.01c.432.25.994.107 1.311-.332.333-.465.247-1.12-.187-1.422a48.897 48.897 0 0 0-3.53-2.332c-.468-.27-1.076-.103-1.368.403-.304.499-.172 1.128.296 1.398a51.774 51.774 0 0 1 3.406 2.243l.072.042Z" fill="#999cab" fill-rule="evenodd" data-name="Path 114"/></g><g data-name="Group 51"><path d="m1839.104 899.464-.055 6.383-33.363 3.752 33.418-10.135Z" fill="#bdcdff" fill-rule="evenodd" data-name="Path 115"/><path d="m1838.12 913.022-4.605 4.707-26.34-8.326 30.945 3.619Z" fill="#bdcdff" fill-rule="evenodd" data-name="Path 116"/><path d="m1805.686 909.599 47.848 8.242-10.652-13.067-37.196 4.825Z" fill="#999cab" fill-rule="evenodd" data-name="Path 117"/><path d="m1839.104 899.464-33.418 10.135 27.105-19.002 6.313 8.867Z" fill="#999cab" fill-rule="evenodd" data-name="Path 118"/></g></g></svg>