<svg xmlns="http://www.w3.org/2000/svg" width="383.696" height="385.443" viewBox="889.366 835.844 383.696 385.443"><path d="M1096.343 1166.91c-25.242 4.152-53.36 7.246-75.065-2.878-21.364-10.32-36.51-34.2-53.604-58.314-16.754-24.31-35.992-48.999-36.105-74.308-.256-24.773 18.273-49.97 36.869-71.128 19.132-21.014 38.33-37.989 60.051-56.873 21.865-19.42 46.252-40.75 71.456-42.614 25.544-2.06 51.76 15.88 66.514 39.08 14.414 23.395 17.22 52.586 32.118 75.25 14.557 22.86 41.061 39.728 45.382 58.983 4.32 19.255-13.687 41.432-30.1 60.877-16.558 19.98-31.128 37.908-50.106 49.771s-42.024 17.466-67.41 22.154Z" fill="#9a8dec" fill-rule="evenodd" data-name="blob"/></svg>