<svg xmlns="http://www.w3.org/2000/svg" width="264.959" height="262.167" viewBox="1524.396 -185.603 264.959 262.167"><path d="M1570.84-118.532c11.068-16.622 24.271-34.322 41.606-41.323 17.266-6.702 38.962-2.636 61.829.442 22.798 3.377 47.134 5.538 61.643 18.947 14.28 13.042 18.8 37.035 20.98 58.915 1.811 22.11 1.281 42.107.498 64.561-.553 22.821-1.359 48.1-13.712 63.48-12.422 15.68-36.622 21.097-57.72 17.169-21.031-4.227-39.19-18.165-60.06-21.725-20.8-3.86-44.54 2.291-57.833-5.493-13.293-7.784-16.367-29.871-18.73-49.593-2.593-20.09-5.07-37.952-1.74-55.102s12.401-33.29 23.24-50.278Z" stroke-linejoin="round" stroke-linecap="round" stroke-width="2" stroke="#707070" fill="transparent" data-name="blob"/></svg>