<svg xmlns="http://www.w3.org/2000/svg" width="47.239" height="59.329" viewBox="1820.806 312.671 47.239 59.329"><g data-name="Group 56"><g data-name="Group 54"><path d="M1849.669 372c-10.116 0-18.376-8.227-18.376-18.376 0-10.116 8.227-18.377 18.376-18.377 10.115 0 18.376 8.228 18.376 18.377S1859.818 372 1849.67 372Zm0-31.661c-7.35 0-13.319 5.968-13.319 13.318s5.969 13.319 13.319 13.319c7.35 0 13.318-5.968 13.318-13.319 0-7.35-5.968-13.318-13.318-13.318Z" fill="#377fee" fill-rule="evenodd" data-name="Path 124"/></g><path d="M1841.78 323.158c0 5.8-4.688 10.486-10.487 10.486-5.8 0-10.487-4.687-10.487-10.486 0-5.8 4.687-10.487 10.487-10.487 5.799 0 10.486 4.687 10.486 10.487Z" fill="#377fee" fill-rule="evenodd" data-name="Path 125"/></g></svg>