<svg xmlns="http://www.w3.org/2000/svg" width="15.755" height="16" viewBox="-485 -2065 15.755 16"><path d="M-481.162-2051.601h2.07v2.6l3.952-2.596h2.048c1.897 0 3.597-1.433 3.744-3.46.134-1.845.14-4.546-.005-6.392a3.685 3.685 0 0 0-3.4-3.397 62.08 62.08 0 0 0-8.728 0 3.685 3.685 0 0 0-3.399 3.396c-.146 1.847-.163 4.548-.03 6.393.147 2.027 1.85 3.457 3.747 3.457Zm-.137-10.652a59.561 59.561 0 0 1 8.362 0c.562.04.988.478 1.03 1.012.136 1.714.13 4.28.005 5.993-.042.566-.53 1.05-1.192 1.05h-2.047l-3.954 2.598v-2.597h-2.073c-.66 0-1.15-.486-1.19-1.05-.125-1.713-.107-4.28.03-5.994a1.105 1.105 0 0 1 1.03-1.012Z" fill="#06f" fill-rule="evenodd" data-name="Path 107"/></svg>