<svg xmlns="http://www.w3.org/2000/svg" width="16.071" height="15" viewBox="-549 -2162 16.071 15"><path d="M-544.036-2154.5c-.904.028-1.644.385-2.218 1.072h-1.122c-.458 0-.843-.113-1.155-.34-.313-.225-.469-.556-.469-.991 0-1.97.346-2.955 1.038-2.955.033 0 .155.058.364.176.21.117.481.235.816.355.335.12.667.18.996.18.374 0 .745-.064 1.114-.192a3.686 3.686 0 0 0 .636 2.695Zm8.965 5.332c0 .67-.204 1.198-.611 1.586-.408.388-.95.582-1.624.582h-7.316c-.675 0-1.217-.194-1.624-.582-.407-.388-.611-.916-.611-1.586 0-.296.01-.584.03-.866.019-.282.058-.586.116-.913.059-.326.133-.629.222-.908.09-.279.21-.55.36-.816.15-.265.324-.491.52-.678.194-.187.433-.336.715-.448.282-.111.593-.167.933-.167.056 0 .176.06.36.18s.388.254.611.402c.223.147.522.281.896.401s.75.18 1.13.18c.38 0 .756-.06 1.13-.18a3.67 3.67 0 0 0 .895-.401l.611-.402c.185-.12.305-.18.36-.18.34 0 .652.056.934.167.281.112.52.261.715.448.196.187.369.413.52.678.15.265.27.537.36.816a8.525 8.525 0 0 1 .339 1.82c.019.283.029.571.029.867Zm-8.572-10.69c0 .592-.21 1.097-.628 1.516a2.065 2.065 0 0 1-1.515.628c-.591 0-1.096-.21-1.515-.628a2.065 2.065 0 0 1-.628-1.515c0-.592.21-1.097.628-1.515a2.065 2.065 0 0 1 1.515-.628c.592 0 1.097.21 1.515.628.419.418.628.923.628 1.515Zm5.893 3.215c0 .887-.314 1.645-.942 2.273a3.097 3.097 0 0 1-2.272.942 3.097 3.097 0 0 1-2.273-.942 3.097 3.097 0 0 1-.942-2.273c0-.887.314-1.645.942-2.272a3.097 3.097 0 0 1 2.273-.942c.887 0 1.645.314 2.272.942.628.627.942 1.385.942 2.272Zm4.821 1.884c0 .435-.156.766-.468.991-.313.227-.698.34-1.155.34h-1.122c-.575-.687-1.314-1.044-2.218-1.072a3.686 3.686 0 0 0 .636-2.695c.368.128.74.192 1.113.192.33 0 .661-.06.996-.18.335-.12.607-.238.816-.355.21-.118.331-.176.364-.176.692 0 1.038.985 1.038 2.955Zm-1.071-5.098c0 .591-.21 1.096-.628 1.515a2.065 2.065 0 0 1-1.515.628c-.591 0-1.096-.21-1.515-.628a2.065 2.065 0 0 1-.628-1.515c0-.592.21-1.097.628-1.515a2.065 2.065 0 0 1 1.515-.628c.592 0 1.097.21 1.515.628.419.418.628.923.628 1.515Z" fill="#ec76b2" fill-rule="evenodd" data-name="group"/></svg>