<svg xmlns="http://www.w3.org/2000/svg" width="15.682" height="13.936" viewBox="-737 -2219 15.682 13.936"><path d="M-733.452-2205.244c1.431.12 2.862.18 4.293.18 1.43 0 2.862-.06 4.293-.16 1.842-.159 3.293-1.791 3.43-3.862l.012-.166c.07-1 .106-1.501.106-2.54v-2.01l-2.548 2.25c-.018.954.021 1.204-.04 2.02l-.021.282c-.059.776-.53 1.413-1.098 1.453a47.356 47.356 0 0 1-8.23-.015c-.57-.04-1.04-.677-1.099-1.453l-.016-.235c-.067-.892-.1-1.359-.1-2.314v-.022c.02-1.028.04-2.076.117-3.124.06-.756.51-1.373 1.059-1.453h8.129l-3.874 3.455-1.666-1.555-1.903 1.697 3.546 3.31 7.744-6.906V-2219h-12.134c-1.843.16-3.293 1.792-3.43 3.862a47.52 47.52 0 0 0-.118 3.325c0 1.047.036 1.568.108 2.567l.01.14c.137 2.07 1.587 3.703 3.43 3.862Z" fill="#00c057" fill-rule="evenodd" data-name="Path 109"/></svg>