<svg xmlns="http://www.w3.org/2000/svg" width="16" height="16" viewBox="1773 40 16 16"><path d="M1781 40a8 8 0 1 0 0 16 8 8 0 0 0 0-16Zm0 15c-.984 0-1.92-.203-2.77-.57l3.644-4.098A.5.5 0 0 0 1782 50v-1.5a.5.5 0 0 0-.5-.5c-1.766 0-3.628-1.835-3.647-1.854a.5.5 0 0 0-.353-.146h-2a.5.5 0 0 0-.5.5v3a.5.5 0 0 0 .276.447l1.724.862v2.936a6.992 6.992 0 0 1-3-5.745c0-1.074.242-2.09.674-3h1.826a.5.5 0 0 0 .353-.146l2-2a.5.5 0 0 0 .147-.354v-1.21a7 7 0 0 1 2-.29c1.1 0 2.14.254 3.067.706A2.98 2.98 0 0 0 1783 44c0 .801.312 1.555.879 2.121a2.993 2.993 0 0 0 2.268.876c.215.81.605 2.916-.132 5.817a.499.499 0 0 0-.013.082A6.978 6.978 0 0 1 1781 55Z" fill="#6a6a6b" fill-rule="evenodd" data-name="Icon metro-earth"/></svg>