<svg xmlns="http://www.w3.org/2000/svg" width="15.538" height="13.414" viewBox="-736.856 -2191 15.538 13.414"><path d="M-721.38-2188.436h-2.486V-2191c-2.235 0-4.12 1.5-5.226 2.624-1.107-1.125-2.954-2.624-5.186-2.624v2.564h-2.525c-.078 1.993-.078 5.741.057 7.339a3.65 3.65 0 0 0 3.36 3.354 61.17 61.17 0 0 0 4.312.157c1.457 0 2.933-.04 4.312-.157a3.65 3.65 0 0 0 3.36-3.354c.098-1.598.117-5.346.02-7.339Zm-2.566 7.122c-.041.54-.47.967-1.01 1.006-1.32.099-2.738.138-4.137.138-1.398 0-2.797-.04-4.137-.138a1.076 1.076 0 0 1-1.01-1.006c-.117-1.5-.136-5.267-.04-7.122 1.807.02 3.614 1.993 4.158 2.762l1.03 1.44 1.03-1.44c.542-.77 2.388-2.742 4.194-2.762.078 1.855.04 5.623-.078 7.122Z" fill="#9146ff" fill-rule="evenodd" data-name="Path 110"/></svg>