<svg xmlns="http://www.w3.org/2000/svg" width="15.632" height="15.877" viewBox="-736.856 -2162 15.632 15.877"><path d="M-724.885-2159.274a59.094 59.094 0 0 0-8.296 0c-.558.04-.98.474-1.023 1.004-.134 1.7-.152 4.248-.029 5.946.041.561.526 1.043 1.182 1.043h2.057v2.577l-2.053-.002c-1.883 0-3.573-1.417-3.719-3.428-.133-1.83-.114-4.51.03-6.342a3.656 3.656 0 0 1 3.373-3.372 61.593 61.593 0 0 1 8.66 0 3.656 3.656 0 0 1 3.373 3.372c.144 1.832.138 4.511.005 6.342-.146 2.011-1.832 3.434-3.715 3.434h-2.032l-3.922 2.577v-2.58l3.922-2.577h2.032c.656 0 1.141-.482 1.182-1.043.123-1.698.13-4.245-.004-5.946a1.097 1.097 0 0 0-1.023-1.004Z" fill="#fe5000" fill-rule="evenodd" data-name="Path 111"/></svg>