<svg xmlns="http://www.w3.org/2000/svg" width="52.445" height="52.445" viewBox="48.305 35 52.445 52.445"><g data-name="download (1)"><path d="M82.115 35A18.589 18.589 0 0 0 63.76 50.438h.005a18.674 18.674 0 0 0-15.46 18.395v18.612h18.657a18.633 18.633 0 0 0 18.322-15.16H81.19h19.56V53.614c-.025-10.278-8.357-18.6-18.635-18.613ZM63.487 53.674v.006-.006Z" fill="#135eeb" fill-rule="evenodd" data-name="Path 127"/><path d="M67 50.159c-1.084.007-2.166.1-3.234.28a20.36 20.36 0 0 0-.28 3.23 18.61 18.61 0 0 0 5.461 13.168 18.61 18.61 0 0 0 13.174 5.449h3.18c.227-1.158.34-2.335.335-3.515A18.587 18.587 0 0 0 67 50.159Z" fill="#0a60ea" fill-rule="evenodd" data-name="Path 128"/><path d="M82.155 72.286c-10.295.02-18.655-8.312-18.668-18.606.007-1.083.099-2.163.278-3.232a18.67 18.67 0 0 0-15.46 18.384v18.613h18.657a18.633 18.633 0 0 0 18.322-15.16h-3.13Z" fill="#377fee" fill-rule="evenodd" data-name="Path 129"/><path d="M82.115 35A18.589 18.589 0 0 0 63.76 50.438a20.413 20.413 0 0 1 3.234-.279 18.61 18.61 0 0 1 18.301 22.127h15.454V53.613c-.024-10.278-8.356-18.6-18.634-18.613Z" fill="#6a5ecc" fill-rule="evenodd" data-name="Path 130"/></g></svg>