<svg xmlns="http://www.w3.org/2000/svg" width="15" height="15" viewBox="-342 -2220 15 15"><path d="m-336.76-2211.614.29-1.687a1.763 1.763 0 0 0-1.74-2.063c-.347 0-.675.161-.887.436l-2.335 3.027a2.729 2.729 0 0 0-.568 1.667v3.87a1.364 1.364 0 0 0 1.364 1.364h4.885a2.046 2.046 0 0 0 2.025-1.756l.36-2.523a2.045 2.045 0 0 0-2.024-2.335h-1.37Zm4.52-1.772-.29 1.687a1.763 1.763 0 0 0 1.74 2.063h.215a.683.683 0 0 0 .54-.266l2.467-3.197a2.729 2.729 0 0 0 .568-1.667v-3.87a1.364 1.364 0 0 0-1.364-1.364h-4.885a2.046 2.046 0 0 0-2.025 1.756l-.36 2.523a2.045 2.045 0 0 0 2.024 2.335h1.37Z" fill="#12c33d" fill-rule="evenodd" data-name="review"/></svg>