<svg xmlns="http://www.w3.org/2000/svg" width="15" height="15" viewBox="-342 -2162 15 15"><path d="M-341.25-2159a.752.752 0 0 0-.75.75v9.75c0 .825.675 1.5 1.5 1.5h9.75c.412 0 .75-.338.75-.75a.752.752 0 0 0-.75-.75h-9a.752.752 0 0 1-.75-.75v-9a.752.752 0 0 0-.75-.75Zm12.75-3h-9c-.825 0-1.5.675-1.5 1.5v9c0 .825.675 1.5 1.5 1.5h9c.825 0 1.5-.675 1.5-1.5v-9c0-.825-.675-1.5-1.5-1.5Zm-6 9.375v-6.75l4.102 3.075c.203.15.203.45 0 .6l-4.102 3.075Z" fill="#6a5ecc" fill-rule="evenodd" data-name="video-library"/></svg>